<?xml version="1.0" encoding="utf-8"?>
<!-- Generator: Adobe Illustrator 28.0.0, SVG Export Plug-In . SVG Version: 6.00 Build 0)  -->
<svg version="1.1" xmlns="http://www.w3.org/2000/svg" xmlns:xlink="http://www.w3.org/1999/xlink" x="0px" y="0px"
	 viewBox="0 0 595.28 841.89" style="enable-background:new 0 0 595.28 841.89;" xml:space="preserve">
<style type="text/css">
	.st0{fill:#97C348;}
	.st1{fill:#FFFFFF;stroke:#FFFFFF;stroke-width:4;stroke-miterlimit:10;}
	.st2{fill:none;stroke:#FFFFFF;stroke-width:4;stroke-miterlimit:10;}
</style>
<g id="Слой_1">
</g>
<g id="Слой_2">
	<g>
		<rect x="148.38" y="309.67" class="st0" width="131.27" height="131.27"/>
		<g>
			<line class="st1" x1="192.97" y1="407.99" x2="233.45" y2="407.99"/>
			<line class="st1" x1="193.05" y1="415.25" x2="233.52" y2="415.25"/>
			<path class="st2" d="M242.98,349.63c7.16,18.54-0.14,41.68-18.48,58.22c-0.15,4.74-0.29,9.48-0.44,14.22
				c-1.42,0.05-2.84,0.1-4.25,0.15c-2.1,0.05-4.2,0.1-6.31,0.15c-2.05-0.05-4.11-0.1-6.16-0.15c-1.56,0-3.13,0-4.69,0
				c-0.24-4.79-0.49-9.58-0.73-14.37c-16.61-13.07-25.09-32.69-21.26-50.89c2.83-13.45,13.72-32.49,30.65-33.14
				C226.81,323.22,238.64,338.38,242.98,349.63z"/>
			<rect x="204.41" y="425.44" class="st1" width="18.18" height="5.57"/>
			<path class="st1" d="M203.75,387.17c0-11.54,8.48-18.18,9.46-18.92c0.97,0.73,9.46,7.37,9.46,18.92
				c0,11.54-8.48,18.18-9.46,18.92C212.24,405.35,203.75,398.71,203.75,387.17z"/>
		</g>
	</g>
</g>
</svg>
